# xmcd
#
# Track frame offsets: 
#        150
#        16380
#        35318
#        49968
#        65803
#        81483
#        96107
#        111983
#        133695
#        147954
#        165861
#        183075
#        199106
#        213119
#        229376
#        241200
#
# Disc length: 3318 seconds
#
# Revision: 0
# Processed by: cddbd v1.5.2PL0 Copyright (c) Steve Scherf et al.
# Submitted via: ExactAudioCopyFreeDBPlugin 1.0
#
DISCID=de0cf410
DTITLE=Sam Smith - The Thrill Of It All
DYEAR=2017
DGENRE=Pop
TTITLE0=Too Good At Goodbyes
TTITLE1=Say It First
TTITLE2=One Last Song
TTITLE3=Midnight Train
TTITLE4=Burning
TTITLE5=Him
TTITLE6=Baby, You Make Me Crazy
TTITLE7=No Peace (Feat Yebba)
TTITLE8=Palace
TTITLE9=Pray
TTITLE10=Nothing Left For You
TTITLE11=The Thrill Of It All
TTITLE12=Scars
TTITLE13=One Day At A Time
TTITLE14=Leader Of The Pack
TTITLE15=Blind Eye
EXTD=
EXTT0=
EXTT1=
EXTT2=
EXTT3=
EXTT4=
EXTT5=
EXTT6=
EXTT7=
EXTT8=
EXTT9=
EXTT10=
EXTT11=
EXTT12=
EXTT13=
EXTT14=
EXTT15=
PLAYORDER=
